<svg
	xmlns="http://www.w3.org/2000/svg"
	viewBox="2.0801 -0.2053 19.31 18.4"
>
	<path
		d="m9.8814 4.9109 1.7033-5.1162 1.7531 5.1543 5.1481-2.626-2.4074 4.7663 5.3102 1.9257-5.3102 1.8674 2.2173 4.902-4.7854-2.3927-1.9693 4.806-1.8009-4.8371-4.9343 2.3892 2.1994-4.9934L2.0801 9.0202l4.8946-1.9308-2.1306-4.6598Zm6.3363 3.9938-2.3425-.7298.9603-2.4961-2.269 1.2566-.9568-2.3701-.9215 2.3806-2.313-1.1404 1.1225 2.3693L7.2317 8.9813l2.2274 1.0459-1.2671 2.3721 2.304-1.229 1.075 2.3425 1.0754-2.381 2.1889 1.229-1.0163-2.3336Z"
		fill="#ffffff"
	/>
</svg>