<svg xmlns="http://www.w3.org/2000/svg" viewBox="1.9 1.7 16.4 16.2">
	<path
		d="M4.3 3.4 6.4 3.4 12.9 10.8 12.7 12 13 12.4 14.5 10.9Q15.1 10.5 14.8 11.2L13.3 13.3 15.2 16 16 16.3 16 17.4 14.8 17.4 14.7 16.8 12.4 14 10.4 15.3Q9.2 15.7 9.8 14.6L11.7 13.5 11.2 13 10.4 13.1 2.4 3.4ZM10 2.2 10.3 4C13.5 4.2 15.8 6.7 16 9.6L17.8 10 16 10.4C15.9 12.3 14.9 13.5 14.1 14.3L13.4 13.3C14.2 12.4 15.2 11.2 15.1 10.4L13.2 10.4C13.2 10.5 13 10.7 13 10.7L12.2 9.8C12.3 8.7 11.1 7.5 10.3 7.7L9.6 6.9 9.6 4.9C9.1 4.9 8.6 4.9 8.1 5.2L7.4 4.4C8.2 4.1 8.7 4 9.6 4ZM10.4 5 10.4 6.6C11.6 6.6 13.2 7.9 13.2 9.6L15.1 9.6C15.1 7.6 12.6 4.7 10.4 4.9ZM1.8 10 3.6 9.6C3.7 8.2 4.1 7.2 4.7 6.3L5.4 7.2C4.8 7.7 4.6 8.7 4.6 9.6L6.4 9.6C6.5 9.3 6.6 9 6.7 8.8L7.4 9.6C7.2 10.8 8.3 12.3 9.5 12.3L10.4 13.4 10.4 14.1 9.7 14.5 9.7 13.4C8.3 13.5 6.6 12.2 6.4 10.4L4.6 10.4C4.4 12.4 6.9 15.2 9.5 15 9.4 15.5 10 15.6 10.5 15.3L12.4 14.1 13.1 15C12.3 15.6 11.5 16 10.4 16.2L10 18 9.6 16.2C6.9 16.1 3.5 13.8 3.6 10.4Z"
		fill="#ffffff"
		fill-rule="evenodd"
		clip-rule="evenodd"
	/>
</svg>